HIERARCHY
ROOT Hips
{
	OFFSET -0.001795 -0.223333 0.028219
	CHANNELS 6 Xposition Yposition Zposition Zrotation Yrotation Xrotation 
	JOINT LeftUpLeg
	{
		OFFSET 0.069520 -0.091406 -0.006815
		CHANNELS 3 Zrotation Yrotation Xrotation
		JOINT LeftLeg
		{
			OFFSET 0.034277 -0.375199 -0.004496
			CHANNELS 3 Zrotation Yrotation Xrotation
			JOINT LeftFoot
			{
				OFFSET -0.013596 -0.397961 -0.043693
				CHANNELS 3 Zrotation Yrotation Xrotation
				JOINT LeftToe
				{
					OFFSET 0.026358 -0.055791 0.119288
					CHANNELS 3 Zrotation Yrotation Xrotation
					End Site
					{
						OFFSET 0.000000 0.000000 0.000000
					}
				}
			}
		}
	}
	JOINT RightUpLeg
	{
		OFFSET -0.067670 -0.090522 -0.004320
		CHANNELS 3 Zrotation Yrotation Xrotation
		JOINT RightLeg
		{
			OFFSET -0.038290 -0.382569 -0.008850
			CHANNELS 3 Zrotation Yrotation Xrotation
			JOINT RightFoot
			{
				OFFSET 0.015774 -0.398415 -0.042312
				CHANNELS 3 Zrotation Yrotation Xrotation
				JOINT RightToe
				{
					OFFSET -0.025372 -0.048144 0.123348
					CHANNELS 3 Zrotation Yrotation Xrotation
					End Site
					{
						OFFSET 0.000000 0.000000 0.000000
					}
				}
			}
		}
	}
	JOINT Spine
	{
		OFFSET -0.002533 0.108963 -0.026696
		CHANNELS 3 Zrotation Yrotation Xrotation
		JOINT Spine1
		{
			OFFSET 0.005487 0.135180 0.001092
			CHANNELS 3 Zrotation Yrotation Xrotation
			JOINT Spine2
			{
				OFFSET 0.001457 0.052922 0.025425
				CHANNELS 3 Zrotation Yrotation Xrotation
				JOINT Neck
				{
					OFFSET -0.002778 0.213870 -0.042857
					CHANNELS 3 Zrotation Yrotation Xrotation
					JOINT Head
					{
						OFFSET 0.005152 0.064970 0.051349
						CHANNELS 3 Zrotation Yrotation Xrotation
						End Site
						{
							OFFSET 0.000000 0.000000 0.000000
						}
					}
				}
				JOINT LeftShoulder
				{
					OFFSET 0.078845 0.121749 -0.034090
					CHANNELS 3 Zrotation Yrotation Xrotation
					JOINT LeftArm
					{
						OFFSET 0.090977 0.030469 -0.008868
						CHANNELS 3 Zrotation Yrotation Xrotation
						JOINT LeftForeArm
						{
							OFFSET 0.259612 -0.012772 -0.027456
							CHANNELS 3 Zrotation Yrotation Xrotation
							JOINT LeftHand
							{
								OFFSET 0.249234 0.008986 -0.001171
								CHANNELS 3 Zrotation Yrotation Xrotation
								End Site
								{
									OFFSET 0.000000 0.000000 0.000000
								}
							}
						}
					}
				}
				JOINT RightShoulder
				{
					OFFSET -0.081759 0.118833 -0.038615
					CHANNELS 3 Zrotation Yrotation Xrotation
					JOINT RightArm
					{
						OFFSET -0.096012 0.032551 -0.009143
						CHANNELS 3 Zrotation Yrotation Xrotation
						JOINT RightForeArm
						{
							OFFSET -0.253742 -0.013329 -0.021401
							CHANNELS 3 Zrotation Yrotation Xrotation
							JOINT RightHand
							{
								OFFSET -0.255298 0.007772 -0.005559
								CHANNELS 3 Zrotation Yrotation Xrotation
								End Site
								{
									OFFSET 0.000000 0.000000 0.000000
								}
							}
						}
					}
				}
			}
		}
	}
}
MOTION
Frames: 16
Frame Time: 0.050000
0.000000 0.904083 0.000000 -9.760658 -36.624402 21.122392 9.465245 8.767883 -45.975997 3.944431 0.810617 32.034121 -12.967378 -17.847683 10.612690 0.000000 0.000000 0.000000 -9.468010 3.117296 -23.178903 13.265307 0.249056 21.974018 -14.994562 -32.096750 14.293870 0.000000 0.000000 0.000000 -11.237818 8.039004 35.091830 3.936776 -0.644518 -24.379125 -3.024918 13.279562 27.084688 0.369490 0.710310 -24.347678 0.000000 0.000000 0.000000 -15.668151 -17.851419 9.890148 -45.636618 -46.875545 10.747067 37.495410 -76.564680 -20.891662 0.000000 0.000000 0.000000 -3.265017 16.821103 5.824002 32.488512 48.138730 6.337381 -111.011781 41.617972 -50.873755 0.000000 0.000000 0.000000 
-0.000159 0.899003 0.000333 -11.082020 -38.243010 21.260970 9.849744 9.366827 -45.400115 5.398887 0.508986 33.032258 -12.637937 -18.062332 8.808582 0.000000 0.000000 0.000000 -8.519669 3.153033 -22.773890 14.548659 0.157935 19.683486 -19.481936 -37.099484 17.908524 0.000000 0.000000 0.000000 -11.415373 8.449376 35.356727 3.142565 -0.518475 -24.784275 -2.545791 11.852871 28.451097 -0.739952 1.003217 -25.395768 0.000000 0.000000 0.000000 -21.058747 -16.304973 10.950383 -37.590300 -44.689712 6.314660 60.652582 -80.932297 -42.300181 0.000000 0.000000 0.000000 -7.498148 17.139067 5.641411 32.876584 52.631386 6.909103 -105.228229 37.143730 -41.833346 0.000000 0.000000 0.000000 
-0.000159 0.894236 0.001327 -10.018775 -36.814364 21.408012 7.579664 8.634076 -48.392821 6.993522 -0.161437 36.291885 -11.630594 -17.694075 6.778321 0.000000 0.000000 0.000000 -9.797427 3.151820 -23.272085 15.339812 -0.087763 19.370204 -20.547885 -38.469802 18.198588 0.000000 0.000000 0.000000 -11.558252 8.187708 34.900067 2.685255 -0.312108 -25.646935 -2.134392 10.729334 28.489142 -3.332895 2.397470 -21.658993 0.000000 0.000000 0.000000 -24.535027 -17.716801 12.776918 -32.216587 -44.789274 4.538268 42.698073 -76.972379 -25.469958 0.000000 0.000000 0.000000 -7.666568 19.022767 6.186028 27.589630 51.060246 4.387437 -105.017749 35.894213 -40.859356 0.000000 0.000000 0.000000 
-0.000138 0.890801 0.002738 -11.251841 -38.328803 22.806105 8.067767 9.713923 -49.270746 7.110487 -0.130701 36.046609 -11.780851 -16.774367 8.818071 0.000000 0.000000 0.000000 -10.259822 3.462085 -24.649695 16.948016 -0.115011 19.696775 -20.307716 -38.450294 18.128705 0.000000 0.000000 0.000000 -12.396177 8.352276 33.339124 2.312714 -0.279641 -25.399512 -3.256692 11.815401 28.436075 -3.084089 2.282828 -20.135869 0.000000 0.000000 0.000000 -24.169093 -16.908816 12.123601 -32.996736 -45.987743 5.167097 38.208796 -74.551812 -20.851345 0.000000 0.000000 0.000000 -7.191183 18.777097 6.204341 25.725942 50.061462 3.431476 -102.114822 34.805236 -37.799272 0.000000 0.000000 0.000000 
-0.000164 0.887526 0.004949 -11.372703 -38.534966 23.061243 7.650358 9.964219 -50.345209 7.477735 -0.273976 36.749020 -12.131134 -16.420928 10.466309 0.000000 0.000000 0.000000 -10.905400 3.478988 -24.690272 18.141497 -0.204555 19.475086 -20.736403 -39.022755 17.642015 0.000000 0.000000 0.000000 -12.655081 8.350887 32.834654 1.370814 -0.080245 -25.950393 -2.993993 12.598521 28.134826 -2.452760 1.956392 -19.742154 0.000000 0.000000 0.000000 -23.980169 -17.705596 12.378371 -33.371156 -45.549362 5.231228 35.820581 -70.734152 -17.890295 0.000000 0.000000 0.000000 -5.961759 18.531450 6.236633 23.515329 47.670421 2.439250 -100.430037 37.768916 -40.234409 0.000000 0.000000 0.000000 
-0.000194 0.886255 0.007501 -11.704348 -38.041381 23.387277 7.061815 9.578595 -50.782323 8.406178 -0.826682 36.088415 -12.004221 -15.580812 11.886778 0.000000 0.000000 0.000000 -10.779929 3.437278 -24.559342 18.078417 -0.235813 20.106101 -19.361659 -37.686265 15.933218 0.000000 0.000000 0.000000 -12.899581 8.331904 32.556496 1.815941 -0.033106 -27.025308 -3.035642 13.526605 28.420951 -0.622708 0.960705 -19.427146 0.000000 0.000000 0.000000 -24.376348 -17.830864 12.179402 -32.581353 -45.208554 4.850650 30.755299 -69.463813 -14.232083 0.000000 0.000000 0.000000 -6.583204 18.405331 6.136647 22.620137 44.954376 1.949870 -98.845886 40.450521 -41.992818 0.000000 0.000000 0.000000 
-0.000278 0.885167 0.009837 -11.729934 -37.890919 23.729036 6.904076 9.378897 -50.547198 8.407526 -0.907930 34.922983 -11.658895 -15.267603 11.569215 0.000000 0.000000 0.000000 -10.799271 3.466461 -24.707494 17.651078 -0.203026 19.708493 -19.429904 -37.733120 16.585697 0.000000 0.000000 0.000000 -12.788196 8.218914 32.402133 0.940099 0.121456 -27.223799 -3.153248 13.461928 27.524302 -0.467796 0.864033 -19.600825 0.000000 0.000000 0.000000 -24.778404 -18.001404 12.330781 -32.232375 -45.322186 4.874695 25.413392 -66.620539 -10.161977 0.000000 0.000000 0.000000 -6.090958 17.919588 6.075085 22.212829 43.520776 1.693736 -98.533211 43.894170 -45.715683 0.000000 0.000000 0.000000 
-0.000286 0.885113 0.011840 -11.582311 -37.222719 23.913040 6.294569 8.850396 -50.735131 9.162855 -1.335459 34.413838 -11.742310 -15.564734 11.267998 0.000000 0.000000 0.000000 -10.709473 3.452132 -24.800947 17.486881 -0.250520 19.639714 -19.933556 -38.287814 17.215922 0.000000 0.000000 0.000000 -12.357153 8.067080 32.834563 0.631382 0.261968 -28.178822 -3.541097 13.208098 27.496643 -0.446379 0.879192 -19.773324 0.000000 0.000000 0.000000 -25.266667 -18.161273 12.501980 -31.928146 -45.058011 4.691116 22.550668 -65.531379 -8.233079 0.000000 0.000000 0.000000 -6.101485 17.665350 6.001946 21.046392 42.227644 1.223524 -97.518715 46.768299 -48.254095 0.000000 0.000000 0.000000 
-0.000238 0.884651 0.013700 -11.103243 -36.993414 23.792165 5.748703 8.535077 -51.027688 9.327517 -1.434301 34.577884 -11.796296 -15.666383 11.239374 0.000000 0.000000 0.000000 -11.132794 3.497225 -25.233794 17.622998 -0.296436 20.254882 -20.464513 -38.919165 17.759317 0.000000 0.000000 0.000000 -12.080688 7.910856 32.886593 -0.181107 0.404738 -28.347299 -3.919328 12.564038 26.883880 -0.929509 1.104649 -19.569184 0.000000 0.000000 0.000000 -25.953904 -18.297256 12.887480 -30.662837 -45.023373 4.315586 21.517878 -63.953920 -7.472649 0.000000 0.000000 0.000000 -6.225199 17.721117 6.029113 20.721852 41.666783 1.061679 -95.461218 48.806220 -49.251220 0.000000 0.000000 0.000000 
-0.000405 0.883984 0.015534 -10.818895 -36.694898 24.040766 4.963461 8.169924 -51.605694 10.104864 -1.817073 34.604846 -11.911550 -15.882736 11.155475 0.000000 0.000000 0.000000 -11.619462 3.549707 -25.697141 18.236784 -0.399805 20.688705 -20.747832 -39.377398 17.612667 0.000000 0.000000 0.000000 -11.838918 7.746110 32.817007 -1.063672 0.550822 -28.353121 -4.483585 11.880024 26.492179 -1.486498 1.374055 -19.752691 0.000000 0.000000 0.000000 -25.447542 -18.599297 13.144467 -29.856230 -45.438635 4.229649 22.231686 -62.539241 -7.724895 0.000000 0.000000 0.000000 -6.314043 17.809015 6.077938 19.626887 41.297777 0.673255 -92.835424 49.958191 -48.842238 0.000000 0.000000 0.000000 
-0.000738 0.882989 0.017406 -10.304070 -36.438972 23.765209 4.419290 7.862502 -51.980683 10.294815 -1.923434 35.167183 -12.044807 -16.055860 11.196496 0.000000 0.000000 0.000000 -12.161264 3.579505 -26.137000 18.717195 -0.502046 21.930036 -22.278555 -41.300079 17.480301 0.000000 0.000000 0.000000 -11.694110 7.816741 33.377992 -1.614694 0.666407 -28.698053 -4.693511 11.321235 26.571289 -1.816003 1.539321 -19.760682 0.000000 0.000000 0.000000 -25.443301 -19.029438 13.516147 -28.923291 -45.879995 4.041730 23.219007 -62.095807 -8.285443 0.000000 0.000000 0.000000 -6.779271 17.841334 6.056130 18.617397 41.189943 0.355172 -90.783818 51.175230 -48.766985 0.000000 0.000000 0.000000 
-0.001221 0.882109 0.019315 -9.725277 -36.045763 23.473536 4.091775 7.525879 -52.029777 10.060286 -1.871356 35.236508 -12.041932 -16.209807 10.904571 0.000000 0.000000 0.000000 -13.116987 3.548934 -26.335627 19.773063 -0.709794 22.334598 -24.551931 -43.750378 18.538657 0.000000 0.000000 0.000000 -11.491826 7.844407 33.944102 -2.314655 0.811549 -29.057871 -5.129470 10.334983 26.496369 -2.698904 2.002587 -20.372669 0.000000 0.000000 0.000000 -24.753305 -19.103463 13.586187 -28.476783 -45.934111 3.959306 25.354922 -62.167644 -9.532633 0.000000 0.000000 0.000000 -7.880468 18.072782 6.067325 17.515951 41.530736 0.010472 -85.769548 51.202102 -45.509584 0.000000 0.000000 0.000000 
-0.001651 0.881650 0.021391 -9.432985 -36.068499 23.636302 3.897106 7.505961 -52.327744 9.801966 -1.772554 35.392204 -11.987980 -16.200137 10.759873 0.000000 0.000000 0.000000 -13.680532 3.597003 -26.735386 20.644041 -0.845887 23.015713 -27.098887 -46.304478 19.777444 0.000000 0.000000 0.000000 -11.248366 7.763167 34.027271 -3.198177 0.972693 -29.362023 -5.102692 9.704172 26.200284 -3.255411 2.258973 -20.194291 0.000000 0.000000 0.000000 -25.143745 -19.267337 14.004979 -27.285047 -45.435254 3.443586 26.370318 -63.070055 -10.325122 0.000000 0.000000 0.000000 -8.845536 18.515476 6.160596 16.060256 41.849437 -0.442232 -81.257600 52.027252 -43.432057 0.000000 0.000000 0.000000 
-0.002028 0.881091 0.023617 -8.866943 -36.033594 23.403769 3.766633 7.499354 -52.672423 9.263067 -1.523942 36.275795 -12.265916 -16.654714 10.596300 0.000000 0.000000 0.000000 -14.647667 3.559460 -26.680679 21.724755 -1.031827 23.424723 -29.959392 -48.673799 21.828487 0.000000 0.000000 0.000000 -11.014068 7.798255 34.516335 -4.102296 1.150704 -29.758246 -5.393862 8.651104 26.091034 -4.548332 2.929101 -20.632972 0.000000 0.000000 0.000000 -24.746032 -18.961538 13.988383 -26.415895 -45.068978 3.111549 28.444820 -63.945526 -11.743368 0.000000 0.000000 0.000000 -9.863658 18.606154 6.167619 14.659628 42.560210 -0.935963 -77.019088 52.628999 -41.466410 0.000000 0.000000 0.000000 
-0.002195 0.881190 0.025912 -8.651697 -36.344907 23.248471 3.826341 7.534275 -52.397367 8.970904 -1.318442 36.677001 -12.184105 -16.969027 9.632183 0.000000 0.000000 0.000000 -15.270905 3.570661 -26.715307 22.565928 -1.139235 23.832426 -31.862298 -49.920027 23.674262 0.000000 0.000000 0.000000 -10.881961 7.799480 34.604599 -4.801529 1.271986 -29.869641 -5.251145 8.238557 26.196814 -5.001458 3.128423 -20.838979 0.000000 0.000000 0.000000 -25.128387 -18.972737 14.288587 -25.333996 -44.592409 2.628105 29.948615 -64.660424 -12.878610 0.000000 0.000000 0.000000 -10.924764 18.886327 6.202686 13.078192 42.816627 -1.480990 -73.271126 52.524505 -39.184529 0.000000 0.000000 0.000000 
-0.002324 0.881050 0.028167 -8.101530 -36.605538 23.075481 3.588872 7.459405 -52.373561 8.616357 -1.107876 36.984121 -12.144440 -17.161866 9.085633 0.000000 0.000000 0.000000 -16.059020 3.600652 -26.908108 23.291374 -1.248489 24.287563 -33.551309 -50.979984 25.308496 0.000000 0.000000 0.000000 -10.755408 7.808540 34.695254 -5.371927 1.376782 -29.895022 -5.621000 7.560892 25.985052 -5.408629 3.225912 -21.925574 0.000000 0.000000 0.000000 -24.912255 -18.449452 14.140074 -24.952320 -43.858944 2.367427 31.737388 -65.955582 -14.291269 0.000000 0.000000 0.000000 -11.014350 19.072713 6.298755 11.174419 42.897597 -2.138450 -71.584278 52.646953 -38.525900 0.000000 0.000000 0.000000 
